<?xml version="1.0" encoding="UTF-8"?>
<svg id="ICONS" xmlns="http://www.w3.org/2000/svg" viewBox="0 0 450 140">
  <defs>
    <style>
      .cls-1 {
        fill: #fff;
      }
    </style>
  </defs>
  <path id="airbnb" class="cls-1" d="M227.3,40.98c0,3.57-2.88,6.45-6.45,6.45s-6.45-2.88-6.45-6.45,2.78-6.45,6.45-6.45c3.68.1,6.45,2.98,6.45,6.45ZM200.69,53.98v1.59s-3.08-3.97-9.63-3.97c-10.82,0-19.26,8.24-19.26,19.66s8.34,19.66,19.26,19.66c6.65,0,9.63-4.07,9.63-4.07v1.69c0,.79.6,1.39,1.39,1.39h8.04v-37.33h-8.04c-.79,0-1.39.7-1.39,1.39h0ZM200.69,77.91c-1.49,2.18-4.47,4.07-8.04,4.07-6.35,0-11.22-3.97-11.22-10.72s4.87-10.72,11.22-10.72c3.48,0,6.65,1.99,8.04,4.07v13.3ZM216.08,52.59h9.53v37.33h-9.53v-37.33h0ZM358.44,51.6c-6.55,0-9.63,3.97-9.63,3.97v-20.95h-9.53v55.3h8.04c.79,0,1.39-.7,1.39-1.39v-1.69s3.08,4.07,9.63,4.07c10.82,0,19.26-8.34,19.26-19.65s-8.44-19.66-19.16-19.66h0ZM356.85,81.88c-3.67,0-6.55-1.88-8.04-4.07v-13.3c1.49-1.99,4.67-4.07,8.04-4.07,6.35,0,11.22,3.97,11.22,10.72s-4.86,10.72-11.22,10.72ZM334.32,67.78v22.24h-9.53v-21.15c0-6.15-1.99-8.64-7.34-8.64-2.88,0-5.86,1.49-7.75,3.67v26.01h-9.53v-37.33h7.54c.79,0,1.39.7,1.39,1.39v1.59c2.78-2.88,6.45-3.97,10.12-3.97,4.17,0,7.65,1.19,10.43,3.58,3.37,2.78,4.67,6.35,4.67,12.61h0ZM277.04,51.6c-6.55,0-9.63,3.97-9.63,3.97v-20.95h-9.53v55.3h8.04c.79,0,1.39-.7,1.39-1.39v-1.69s3.08,4.07,9.63,4.07c10.82,0,19.26-8.34,19.26-19.65.1-11.32-8.34-19.66-19.16-19.66h0ZM275.45,81.88c-3.67,0-6.55-1.88-8.04-4.07v-13.3c1.49-1.99,4.67-4.07,8.04-4.07,6.36,0,11.22,3.97,11.22,10.72s-4.86,10.72-11.22,10.72ZM249.64,51.6c2.88,0,4.37.5,4.37.5v8.83s-7.94-2.68-12.9,2.98v26.11h-9.53v-37.43h8.04c.79,0,1.39.7,1.39,1.39v1.59c1.79-2.09,5.66-3.97,8.64-3.97h0ZM150.66,86.55c-.5-1.19-.99-2.48-1.49-3.57-.8-1.79-1.59-3.48-2.28-5.06l-.1-.1c-6.85-14.89-14.2-29.98-21.94-44.87l-.3-.6c-.81-1.54-1.61-3.1-2.38-4.67-.99-1.79-1.99-3.67-3.57-5.46-3.18-3.97-7.74-6.16-12.61-6.16s-9.43,2.18-12.71,5.96c-1.49,1.79-2.58,3.67-3.57,5.46-.77,1.56-1.57,3.12-2.38,4.67l-.3.6c-7.64,14.89-15.09,29.98-21.94,44.87l-.1.2c-.69,1.59-1.49,3.28-2.28,5.06-.5,1.09-.99,2.28-1.49,3.57-1.29,3.67-1.69,7.15-1.19,10.72,1.09,7.45,6.05,13.7,12.91,16.48,2.58,1.09,5.26,1.59,8.04,1.59.79,0,1.79-.1,2.58-.2,3.28-.4,6.65-1.49,9.93-3.37,4.07-2.28,7.94-5.56,12.31-10.32,4.37,4.77,8.34,8.04,12.31,10.32,3.28,1.89,6.65,2.98,9.93,3.37.79.1,1.79.2,2.58.2,2.78,0,5.56-.5,8.04-1.59,6.95-2.78,11.81-9.13,12.91-16.48.79-3.47.39-6.95-.9-10.62h0ZM105.89,91.71c-5.36-6.75-8.84-13.1-10.03-18.46-.5-2.28-.6-4.27-.3-6.06.2-1.59.79-2.98,1.59-4.17,1.89-2.68,5.06-4.37,8.74-4.37s6.95,1.59,8.74,4.37c.79,1.19,1.39,2.58,1.59,4.17.3,1.79.2,3.87-.3,6.06-1.2,5.26-4.67,11.61-10.03,18.46ZM145.5,96.37c-.69,5.16-4.17,9.63-9.03,11.62-2.38.99-4.96,1.29-7.54.99-2.48-.3-4.96-1.09-7.54-2.58-3.57-1.99-7.15-5.06-11.32-9.63,6.55-8.04,10.52-15.39,12.01-21.94.7-3.08.8-5.86.5-8.44-.4-2.48-1.29-4.77-2.68-6.75-3.08-4.47-8.24-7.05-14-7.05s-10.92,2.68-14,7.05c-1.39,1.99-2.28,4.27-2.68,6.75-.4,2.58-.3,5.46.5,8.44,1.49,6.55,5.56,14,12.01,22.04-4.07,4.57-7.74,7.65-11.32,9.63-2.58,1.49-5.06,2.28-7.54,2.58-2.68.3-5.26-.1-7.55-.99-4.86-1.99-8.34-6.45-9.03-11.62-.3-2.48-.1-4.96.89-7.74.3-.99.79-1.99,1.29-3.18.7-1.59,1.49-3.28,2.28-4.96l.1-.2c6.85-14.79,14.19-29.88,21.84-44.57l.3-.6c.8-1.49,1.59-3.08,2.38-4.57.79-1.59,1.69-3.08,2.78-4.37,2.08-2.38,4.86-3.67,7.94-3.67s5.86,1.29,7.94,3.67c1.09,1.29,1.99,2.78,2.78,4.37.8,1.49,1.59,3.08,2.38,4.57l.3.6c7.53,14.75,14.78,29.65,21.74,44.67v.1c.8,1.59,1.49,3.38,2.28,4.97.5,1.19.99,2.18,1.29,3.17.79,2.58,1.09,5.06.69,7.64h0Z"/>
</svg>