<?xml version="1.0" encoding="UTF-8"?>
<svg id="ICONS" xmlns="http://www.w3.org/2000/svg" viewBox="0 0 450 140">
  <defs>
    <style>
      .cls-1 {
        fill: #fff;
      }
    </style>
  </defs>
  <g id="booking">
    <path id="path3426" class="cls-1" d="M412.87,53.88c-4.41,0-8.66,2.06-11.4,5.52l-.77.98-.6-1.09c-1.97-3.59-5.35-5.41-10.06-5.41s-8.25,2.75-9.78,4.39l-1.01,1.09-.39-1.43c-.56-2.06-2.4-3.2-5.18-3.2h-4.46l-.04,37.11h10.14v-16.38c0-1.43.18-2.85.54-4.34.97-3.96,3.63-8.21,8.1-7.79,2.76.26,4.1,2.4,4.1,6.51v22h10.21v-16.38c0-1.79.17-3.14.57-4.48.82-3.78,3.6-7.65,7.91-7.65,3.12,0,4.28,1.77,4.28,6.52v16.57c3,0,5.42,2.43,5.42,5.42h4.77v-23.69c0-9.46-4.16-14.27-12.36-14.27"/>
    <path id="path3406" class="cls-1" d="M345.92,83.4c-5.32,0-9.03-4.23-9.03-10.27s3.71-10.27,9.03-10.27,9.1,4.23,9.1,10.27-3.66,10.27-9.1,10.27ZM345.92,53.84c-11.27,0-19.45,8.12-19.45,19.29s8.18,19.29,19.45,19.29,19.51-8.11,19.51-19.29-8.22-19.29-19.51-19.29"/>
    <path id="path3428" class="cls-1" d="M320.6,78.95s-4.39,4.64-10.14,4.64c-5.23,0-10.52-3.21-10.52-10.38,0-6.19,4.1-10.52,9.97-10.52,1.91,0,4.07.68,4.41,1.83l.05.19c.78,2.6,3.15,2.74,3.61,2.74h5.56s0-4.85,0-4.85c0-6.41-8.15-8.73-13.63-8.73-11.72,0-20.23,8.16-20.23,19.41s8.42,19.39,20.02,19.39c10.07,0,15.54-6.62,15.59-6.68l.29-.36-4.4-7.3-.58.62"/>
    <path id="path3374" class="cls-1" d="M275.58,86.08c0-3.43,2.76-6.2,6.17-6.2s6.19,2.77,6.19,6.2-2.78,6.2-6.19,6.2-6.17-2.78-6.17-6.2"/>
    <path id="path3408" class="cls-1" d="M253.66,81.76c-5.81,0-7.87-5.06-7.87-9.81,0-2.09.53-8.91,7.31-8.91,3.37,0,7.87.97,7.87,9.26,0,7.82-3.98,9.46-7.31,9.46ZM266.48,54.5c-2.01,0-3.57.8-4.34,2.27l-.29.57-.49-.43c-1.71-1.48-4.79-3.24-9.78-3.24-9.93,0-16.61,7.46-16.61,18.55s6.92,18.83,16.81,18.83c3.38,0,6.05-.79,8.17-2.39l.82-.62v1.04c0,4.98-3.22,7.72-9.05,7.72-2.83,0-5.41-.69-7.14-1.32-2.25-.68-3.57-.12-4.49,2.14l-.84,2.09-1.19,3.05.74.39c3.73,1.98,8.59,3.16,12.98,3.16,9.04,0,19.6-4.63,19.6-17.65l.04-34.16h-4.93"/>
    <path id="path3380" class="cls-1" d="M217.98,53.76c-5.44,0-8.91,2.42-10.85,4.46l-.65.66-.23-.89c-.57-2.19-2.5-3.39-5.39-3.39h-4.79l.03,37.25h10.62v-17.17c0-1.68.22-3.14.66-4.46,1.18-4.02,4.48-6.52,8.6-6.52,3.31,0,4.61,1.75,4.61,6.27v16.22c0,3.86,1.78,5.66,5.65,5.66h5.05l-.02-23.69c0-9.41-4.59-14.39-13.28-14.39"/>
    <path id="path3382" class="cls-1" d="M184.37,54.6h-5.03l.03,28.8h0v8.44h5.37c.07,0,.12,0,.19,0h2.5s2.49,0,2.49,0h0s.02-.01.02-.01l.02-31.57c0-3.81-1.82-5.66-5.59-5.66"/>
    <path id="path3372" class="cls-1" d="M178.05,44.86c0-3.43,2.77-6.2,6.17-6.2s6.19,2.77,6.19,6.2-2.78,6.2-6.19,6.2-6.17-2.77-6.17-6.2"/>
    <path id="path3378" class="cls-1" d="M166.08,74.09c-.44-.82-.94-1.52-1.47-2.08l-.34-.36.36-.34c.52-.54,1.05-1.19,1.56-1.94l9.94-14.77h-12.07l-7.47,11.56c-.42.62-1.28.93-2.55.93h-1.7v-21.85c0-4.37-2.72-4.97-5.66-4.97h-5.04v51.58h10.7v-15.47h1c1.22,0,2.05.14,2.43.8l5.9,11.13c1.65,3.02,3.29,3.54,6.38,3.54h8.19l-6.1-10.09-4.05-7.66"/>
    <path id="path3376" class="cls-1" d="M76.61,83.4c-5.32,0-9.02-4.23-9.02-10.27s3.7-10.27,9.02-10.27,9.09,4.23,9.09,10.27-3.66,10.27-9.09,10.27ZM76.61,53.84c-11.26,0-19.44,8.12-19.44,19.29s8.17,19.29,19.44,19.29,19.51-8.11,19.51-19.29-8.21-19.29-19.51-19.29"/>
    <path id="path3384" class="cls-1" d="M118.32,83.4c-5.32,0-9.03-4.23-9.03-10.27s3.71-10.27,9.03-10.27,9.09,4.23,9.09,10.27-3.66,10.27-9.09,10.27ZM118.32,53.84c-11.27,0-19.45,8.12-19.45,19.29s8.18,19.29,19.45,19.29,19.51-8.11,19.51-19.29-8.22-19.29-19.51-19.29"/>
    <path id="path3424" class="cls-1" d="M37.06,82.97h-8.64v-10.34c0-2.21.86-3.36,2.75-3.62h5.89c4.21,0,6.93,2.65,6.93,6.95,0,4.41-2.65,7.02-6.93,7.02h0ZM28.42,55.09v-2.72c0-2.38,1.01-3.51,3.22-3.66h4.42c3.79,0,6.07,2.27,6.07,6.07,0,2.9-1.56,6.28-5.93,6.28h-7.78v-5.97h0ZM48.1,65.41l-1.56-.88,1.36-1.17c1.59-1.36,4.25-4.43,4.25-9.73,0-8.11-6.29-13.34-16.02-13.34h-11.11s-1.26,0-1.26,0c-2.89.11-5.19,2.45-5.23,5.36v46.01h5.1s.02,0,.02,0h12.7c10.82,0,17.8-5.89,17.8-15.01,0-4.91-2.26-9.11-6.05-11.24"/>
  </g>
</svg>